<svg xmlns="http://www.w3.org/2000/svg" version="1.1" viewBox="0 0 127 127" enable-background="new 0 0 127 127"> <g> <path opacity="0.7" fill="#010101" enable-background="new    " d="M90.9,34.2c-7.8-7.2-17.3-10.7-27.4-10.7 C45,23.5,28.9,36,24.1,53.9c-0.6,1.2-1.2,2.4-3,2.4H8c-1.8,0-3-1.8-3-3.6C10.4,25.3,34.3,4.4,63.5,4.4c16.1,0,30.4,6.6,41.1,16.7 l8.3-8.3c3.6-3.6,10.1-1.2,10.1,4.2v32.2c0,3-2.4,6-6,6 M36,93.2c7.8,7.2,17.3,10.7,27.4,10.7c18.5,0,34.6-12.5,39.4-30.4 c0.6-1.2,1.2-2.4,3-2.4h13.7c1.8,0,3,1.8,3,3.6c-5.4,27.4-29.2,48.3-58.4,48.3c-16.1,0-30.4-6.6-41.1-16.7l-8.9,8.9 c-3.6,3.6-10.1,1.2-10.1-4.2V78.9c0-3,2.4-6,6-6"/> <path fill="#ACD147" d="M71.2,50.3V36.6c0-2.4,1.8-4.2,4.2-4.2c2.4,0,4.2,1.8,4.2,4.2v13.7H71.2z M84.9,52.1H42 c-1.2,0-1.8,0.6-1.8,1.8v4.2c0,1.2,0.6,1.8,1.8,1.8h1.8V64c0,9.5,6.6,17.3,15.5,19.1V95h7.8V83.1C76,81.3,82.6,73.6,82.6,64v-4.2 h1.8c1.2,0,1.8-0.6,1.8-1.8v-4.2C86.7,52.7,86.1,52.1,84.9,52.1z M55.7,50.3V36.6c0-2.4-1.8-4.2-4.2-4.2c-2.4,0-4.2,1.8-4.2,4.2 v13.7H55.7z"/> </g> </svg>